<svg width="41" height="42" viewBox="0 0 41 42" fill="none" xmlns="http://www.w3.org/2000/svg">
<g clip-path="url(#clip0_83_394)">
<path d="M0.52369 20.8092C0.52369 18.1902 0.45281 15.5473 0.52369 12.9282C0.783583 5.78539 5.41442 0.880627 12.4315 0.618722C17.8893 0.404436 23.3707 0.404436 28.8285 0.618722C35.6566 0.904436 40.4528 6.23777 40.4764 13.214C40.5001 17.9759 40.4764 22.7378 40.4764 27.4997C40.4764 35.8092 36.2709 40.714 28.0015 41.1902C22.3075 41.5235 16.5898 41.6902 10.8958 40.8806C4.91826 40.0473 0.783583 35.4759 0.59457 29.4521C0.500063 26.5711 0.59457 23.6902 0.59457 20.8092H0.52369ZM20.2284 36.7616C22.8273 36.7616 25.4499 36.8092 28.0488 36.7616C33.1994 36.6663 36.3418 33.5949 36.4599 28.3092C36.578 23.3092 36.578 18.2854 36.4599 13.2854C36.3181 8.28539 33.3175 4.95206 28.4032 4.71396C23.2053 4.45206 17.9602 4.47586 12.7623 4.71396C7.6117 4.95206 4.68199 8.3092 4.63474 13.5473C4.58748 18.5473 4.56386 23.5473 4.63474 28.5711C4.70562 33.5949 7.75346 36.6425 12.7859 36.7616C15.2667 36.833 17.7476 36.7616 20.2284 36.7616Z" fill="#F2F3F4"/>
<path d="M20.8664 10.9281C26.395 10.9995 30.9077 15.5948 30.7187 20.9757C30.5297 26.5233 26.0879 30.9043 20.6537 30.9043C15.3377 30.9043 10.5415 26.1662 10.5415 20.9281C10.5415 15.2376 15.0778 10.8567 20.8664 10.9281ZM26.773 20.6186C26.6785 17.4281 23.9142 14.8805 20.6065 14.9281C17.1097 14.9519 14.369 17.7614 14.5108 21.1186C14.6525 24.2853 17.4878 26.9281 20.701 26.9043C24.056 26.9043 26.8676 23.9757 26.773 20.6186Z" fill="#F2F3F4"/>
<path d="M28.4269 10.1428C28.7341 8.57133 29.7737 7.88085 31.333 8.02371C32.8215 8.16657 33.6248 9.21418 33.4594 10.5475C33.2704 12.0475 32.2072 12.9761 30.577 12.7618C29.1357 12.5713 28.4506 11.6428 28.4033 10.1428H28.4269Z" fill="#F2F3F4"/>
</g>
<defs>
<clipPath id="clip0_83_394">
<rect width="40" height="41" fill="white" transform="translate(0.5 0.452148)"/>
</clipPath>
</defs>
</svg>
