<svg width="40" height="42" viewBox="0 0 40 42" fill="none" xmlns="http://www.w3.org/2000/svg">
<path d="M35.1667 0.452148C36.3159 0.452148 37.4181 0.932107 38.2308 1.78644C39.0435 2.64077 39.5 3.7995 39.5 5.0077V36.8966C39.5 38.1048 39.0435 39.2635 38.2308 40.1179C37.4181 40.9722 36.3159 41.4521 35.1667 41.4521H4.83333C3.68406 41.4521 2.58186 40.9722 1.7692 40.1179C0.956546 39.2635 0.5 38.1048 0.5 36.8966V5.0077C0.5 3.7995 0.956546 2.64077 1.7692 1.78644C2.58186 0.932107 3.68406 0.452148 4.83333 0.452148H35.1667ZM34.0833 35.7577V23.6855C34.0833 21.7161 33.3392 19.8274 32.0145 18.4348C30.6899 17.0423 28.8933 16.2599 27.02 16.2599C25.1783 16.2599 23.0333 17.4444 21.9933 19.221V16.6927H15.9483V35.7577H21.9933V24.5283C21.9933 22.7744 23.3367 21.3394 25.005 21.3394C25.8095 21.3394 26.581 21.6753 27.1499 22.2734C27.7188 22.8714 28.0383 23.6825 28.0383 24.5283V35.7577H34.0833ZM8.90667 13.1166C9.87206 13.1166 10.7979 12.7134 11.4805 11.9958C12.1632 11.2781 12.5467 10.3048 12.5467 9.28993C12.5467 7.17159 10.9217 5.44048 8.90667 5.44048C7.93553 5.44048 7.00417 5.84605 6.31748 6.56796C5.63078 7.28987 5.245 8.26899 5.245 9.28993C5.245 11.4083 6.89167 13.1166 8.90667 13.1166ZM11.9183 35.7577V16.6927H5.91667V35.7577H11.9183Z" fill="#F2F3F4"/>
</svg>
