<svg width="48" height="36" viewBox="0 0 48 36" fill="none" xmlns="http://www.w3.org/2000/svg">
<path d="M47.5 3.36915V32.5355C47.5 34.1907 46.2295 35.4521 44.5625 35.4521H41.625V8.98222L24 21.5529L6.375 8.98222V35.4521H3.4375C1.77047 35.4521 0.5 34.1907 0.5 32.5355V3.36915C0.5 2.54083 0.814313 1.81167 1.34159 1.29542C1.61621 1.02261 1.94327 0.807408 2.30332 0.662605C2.66338 0.517802 3.04908 0.446356 3.4375 0.452515H4.41716L24 14.5501L43.5828 0.452515H44.5625C45.3968 0.452515 46.1311 0.764596 46.6584 1.29542C47.1857 1.81167 47.5 2.54083 47.5 3.36915Z" fill="#F2F3F4"/>
</svg>
