<svg width="45" height="44" viewBox="0 0 45 44" fill="none" xmlns="http://www.w3.org/2000/svg">
<path d="M22.5 0.452148C10.356 0.452148 0.5 10.0841 0.5 21.9521C0.5 33.8201 10.356 43.4521 22.5 43.4521C34.644 43.4521 44.5 33.8201 44.5 21.9521C44.5 10.0841 34.644 0.452148 22.5 0.452148ZM32.708 15.0721C32.378 18.4692 30.948 26.7251 30.222 30.5306C29.914 32.1431 29.298 32.6807 28.726 32.7452C27.45 32.8526 26.482 31.9282 25.25 31.1327C23.314 29.8857 22.214 29.1117 20.344 27.9076C18.166 26.5102 19.574 25.7362 20.828 24.4892C21.158 24.1667 26.79 19.1571 26.9 18.7056C26.9153 18.6373 26.9132 18.5663 26.8941 18.4988C26.8749 18.4314 26.8392 18.3695 26.79 18.3186C26.658 18.2111 26.482 18.2541 26.328 18.2757C26.13 18.3186 23.05 20.3181 17.044 24.2741C16.164 24.8546 15.372 25.1556 14.668 25.1341C13.876 25.1126 12.38 24.7041 11.258 24.3386C9.872 23.9086 8.794 23.6721 8.882 22.9196C8.926 22.5326 9.476 22.1456 10.51 21.7371C16.934 19.0066 21.202 17.2006 23.336 16.3406C29.452 13.8467 30.706 13.4166 31.542 13.4166C31.718 13.4166 32.136 13.4596 32.4 13.6746C32.62 13.8466 32.686 14.0831 32.708 14.2551C32.686 14.3841 32.73 14.7711 32.708 15.0721Z" fill="#F2F3F4"/>
</svg>
