<svg width="44" height="44" viewBox="0 0 44 44" fill="none" xmlns="http://www.w3.org/2000/svg">
<path d="M37.2337 6.70876C35.2526 4.7177 32.893 3.13905 30.2924 2.06488C27.6918 0.990709 24.9022 0.442516 22.0864 0.452277C10.2884 0.452277 0.672865 10.0197 0.672865 21.7587C0.672865 25.5212 1.66683 29.1762 3.52513 32.4012L0.5 43.4521L11.8442 40.4852C14.9774 42.1837 18.4995 43.0867 22.0864 43.0867C33.8844 43.0867 43.5 33.5192 43.5 21.7802C43.5 16.0827 41.2744 10.7292 37.2337 6.70876ZM22.0864 39.4747C18.8884 39.4747 15.7553 38.6147 13.0111 37.0022L12.3628 36.6152L5.62111 38.3782L7.41457 31.8422L6.98241 31.1757C5.20568 28.3527 4.26226 25.0896 4.2598 21.7587C4.2598 11.9977 12.2548 4.04277 22.0648 4.04277C26.8186 4.04277 31.2915 5.89176 34.6407 9.24575C36.2991 10.8883 37.6133 12.842 38.5072 14.9936C39.4011 17.1452 39.8569 19.452 39.8482 21.7802C39.8915 31.5412 31.8965 39.4747 22.0864 39.4747ZM31.8533 26.2307C31.3131 25.9727 28.6769 24.6827 28.2015 24.4892C27.7045 24.3172 27.3588 24.2312 26.9915 24.7472C26.6241 25.2847 25.6085 26.4887 25.306 26.8327C25.0035 27.1982 24.6794 27.2412 24.1392 26.9617C23.599 26.7037 21.8703 26.1232 19.8392 24.3172C18.2402 22.8982 17.1814 21.1567 16.8573 20.6192C16.5548 20.0817 16.8141 19.8022 17.095 19.5227C17.3327 19.2862 17.6352 18.8992 17.8945 18.5982C18.1538 18.2972 18.2618 18.0607 18.4347 17.7167C18.6075 17.3512 18.5211 17.0502 18.3915 16.7922C18.2618 16.5342 17.1814 13.9112 16.7492 12.8362C16.3171 11.8042 15.8633 11.9332 15.5392 11.9117H14.502C14.1347 11.9117 13.5729 12.0407 13.0759 12.5782C12.6005 13.1157 11.2176 14.4057 11.2176 17.0287C11.2176 19.6517 13.1407 22.1887 13.4 22.5327C13.6593 22.8982 17.1814 28.2732 22.5402 30.5737C23.8151 31.1327 24.809 31.4552 25.5869 31.6917C26.8618 32.1002 28.0286 32.0357 28.9578 31.9067C29.995 31.7562 32.1342 30.6167 32.5663 29.3697C33.0201 28.1227 33.0201 27.0692 32.8688 26.8327C32.7176 26.5962 32.3935 26.4887 31.8533 26.2307Z" fill="#F2F3F4"/>
</svg>
